# xmcd CD database file
#
# Track frame offsets:
#	150
#	14527
#	29456
#	44928
#	61490
#	73015
#	90341
#	108005
#	121743
#	137127
#	150621
#	167005
#	182912
#	202154
#	219466
#	237960
#	271351
#
# Disc length: 4440 seconds
#
# Revision: 0
# Processed by: cddbd v1.5.1PL2 Copyright (c) Steve Scherf et al.
# Submitted via: CDex 1.51
#
DISCID=f7115611
DTITLE=HINOIチーム - SUPER EURO PARTY Supported by コリッキー
DYEAR=2006
DGENRE=Eurodance
TTITLE0=IKE IKE
TTITLE1=NIGHT OF FIRE with コリッキー
TTITLE2=YEAH!
TTITLE3=HEY Mr.DJ
TTITLE4=SING NA NA NA
TTITLE5=PLAY WITH THE NUMBERS
TTITLE6=SUPER EURO FLASH
TTITLE7=EVERYBODY DANCE
TTITLE8=EMOTICONS
TTITLE9=STICKY TRICKY AND BANG with コリッキー
TTITLE10=JAM JAM JAM
TTITLE11=ON MY OWN
TTITLE12=AISHITERU
TTITLE13=JUST FOR ME
TTITLE14=KING KONG
TTITLE15=SECRET TRACK
TTITLE16=CCCD
EXTD=YEAR: 2006
EXTT0=
EXTT1=
EXTT2=
EXTT3=
EXTT4=
EXTT5=
EXTT6=
EXTT7=
EXTT8=
EXTT9=
EXTT10=
EXTT11=
EXTT12=
EXTT13=
EXTT14=
EXTT15=
EXTT16=
PLAYORDER=
